REM DIRINDEX 1\2,1\3,1\4
REM DIRNAME cjc038,folder01,folder02,folder03
TITLE ""
FILE "DISC2Track34.mp3" MP3
  TRACK 01 AUDIO
    TITLE "4:cjc038_1925"
    INDEX 01 00:00:00
  TRACK 02 AUDIO
    TITLE "0:"
    INDEX 01 00:02:30
  TRACK 03 AUDIO
    TITLE "2:cjc038_1926"
    INDEX 01 00:03:68
  TRACK 04 AUDIO
    TITLE "0:"
    INDEX 01 00:06:33
  TRACK 05 AUDIO
    TITLE "3:cjc038_1927"
    INDEX 01 00:06:41
  TRACK 06 AUDIO
    TITLE "0:"
    INDEX 01 00:08:60
  TRACK 07 AUDIO
    TITLE "2:cjc038_1928"
    INDEX 01 00:09:53
  TRACK 08 AUDIO
    TITLE "0:"
    INDEX 01 00:13:06
  TRACK 09 AUDIO
    TITLE "3:cjc038_1929"
    INDEX 01 00:13:12
  TRACK 10 AUDIO
    TITLE "0:"
    INDEX 01 00:16:16
  TRACK 11 AUDIO
    TITLE "2:cjc038_1930"
    INDEX 01 00:17:06
  TRACK 12 AUDIO
    TITLE "0:"
    INDEX 01 00:19:42
  TRACK 13 AUDIO
    TITLE "3:cjc038_1931"
    INDEX 01 00:19:48
  TRACK 14 AUDIO
    TITLE "0:"
    INDEX 01 00:22:01
  TRACK 15 AUDIO
    TITLE "2:cjc038_1932"
    INDEX 01 00:23:59
  TRACK 16 AUDIO
    TITLE "0:"
    INDEX 01 00:28:41
  TRACK 17 AUDIO
    TITLE "3:cjc038_1933"
    INDEX 01 00:28:49
  TRACK 18 AUDIO
    TITLE "0:"
    INDEX 01 00:33:24
  TRACK 19 AUDIO
    TITLE "2:cjc038_1934"
    INDEX 01 00:33:73
  TRACK 20 AUDIO
    TITLE "0:"
    INDEX 01 00:36:09
  TRACK 21 AUDIO
    TITLE "2:cjc038_1935"
    INDEX 01 00:36:19
  TRACK 22 AUDIO
    TITLE "0:"
    INDEX 01 00:37:63
  TRACK 23 AUDIO
    TITLE "3:cjc038_1936"
    INDEX 01 00:37:69
  TRACK 24 AUDIO
    TITLE "0:"
    INDEX 01 00:39:72
  TRACK 25 AUDIO
    TITLE "3:cjc038_1937"
    INDEX 01 00:40:17
  TRACK 26 AUDIO
    TITLE "0:"
    INDEX 01 00:41:51
  TRACK 27 AUDIO
    TITLE "2:cjc038_1938"
    INDEX 01 00:42:31
  TRACK 28 AUDIO
    TITLE "0:"
    INDEX 01 00:44:36
  TRACK 29 AUDIO
    TITLE "3:cjc038_1939"
    INDEX 01 00:44:50
  TRACK 30 AUDIO
    TITLE "0:"
    INDEX 01 00:46:39
  TRACK 31 AUDIO
    TITLE "2:cjc038_1940"
    INDEX 01 00:47:27
  TRACK 32 AUDIO
    TITLE "0:"
    INDEX 01 00:52:08
  TRACK 33 AUDIO
    TITLE "3:cjc038_1941"
    INDEX 01 00:52:24
  TRACK 34 AUDIO
    TITLE "0:"
    INDEX 01 00:57:05
  TRACK 35 AUDIO
    TITLE "2:cjc038_1942"
    INDEX 01 00:57:60
  TRACK 36 AUDIO
    TITLE "0:"
    INDEX 01 01:03:45
  TRACK 37 AUDIO
    TITLE "3:cjc038_1943"
    INDEX 01 01:03:57
  TRACK 38 AUDIO
    TITLE "0:"
    INDEX 01 01:09:26
  TRACK 39 AUDIO
    TITLE "2:cjc038_1944"
    INDEX 01 01:11:00
  TRACK 40 AUDIO
    TITLE "0:"
    INDEX 01 01:14:63
  TRACK 41 AUDIO
    TITLE "3:cjc038_1945"
    INDEX 01 01:14:72
  TRACK 42 AUDIO
    TITLE "0:"
    INDEX 01 01:18:45
  TRACK 43 AUDIO
    TITLE "2:cjc038_1946"
    INDEX 01 01:19:30
  TRACK 44 AUDIO
    TITLE "0:"
    INDEX 01 01:22:66
  TRACK 45 AUDIO
    TITLE "3:cjc038_1947"
    INDEX 01 01:23:01
  TRACK 46 AUDIO
    TITLE "0:"
    INDEX 01 01:26:29
  TRACK 47 AUDIO
    TITLE "2:cjc038_1948"
    INDEX 01 01:27:10
  TRACK 48 AUDIO
    TITLE "0:"
    INDEX 01 01:31:63
  TRACK 49 AUDIO
    TITLE "3:cjc038_1949"
    INDEX 01 01:31:69
  TRACK 50 AUDIO
    TITLE "0:"
    INDEX 01 01:36:27
  TRACK 51 AUDIO
    TITLE "2:cjc038_1950"
    INDEX 01 01:37:13
  TRACK 52 AUDIO
    TITLE "0:"
    INDEX 01 01:41:38
  TRACK 53 AUDIO
    TITLE "3:cjc038_1951"
    INDEX 01 01:41:50
  TRACK 54 AUDIO
    TITLE "0:"
    INDEX 01 01:45:61
  TRACK 55 AUDIO
    TITLE "2:cjc038_1952"
    INDEX 01 01:46:41
  TRACK 56 AUDIO
    TITLE "0:"
    INDEX 01 01:51:40
  TRACK 57 AUDIO
    TITLE "3:cjc038_1953"
    INDEX 01 01:51:48
  TRACK 58 AUDIO
    TITLE "0:"
    INDEX 01 01:56:26
  TRACK 59 AUDIO
    TITLE "2:cjc038_1954"
    INDEX 01 01:57:21
  TRACK 60 AUDIO
    TITLE "0:"
    INDEX 01 02:02:48
  TRACK 61 AUDIO
    TITLE "3:cjc038_1955"
    INDEX 01 02:02:56
  TRACK 62 AUDIO
    TITLE "0:"
    INDEX 01 02:07:65
  TRACK 63 AUDIO
    TITLE "2:cjc038_1956"
    INDEX 01 02:08:56
  TRACK 64 AUDIO
    TITLE "0:"
    INDEX 01 02:13:10
  TRACK 65 AUDIO
    TITLE "3:cjc038_1957"
    INDEX 01 02:13:18
  TRACK 66 AUDIO
    TITLE "0:"
    INDEX 01 02:17:30
